<mxfile host="app.diagrams.net" modified="2024-02-22T02:27:40.999Z" agent="Mozilla/5.0 (Windows NT 10.0; Win64; x64) AppleWebKit/537.36 (KHTML, like Gecko) Chrome/121.0.0.0 Safari/537.36 Edg/121.0.0.0" etag="0Qjk3iD78PQGqAKA3lQ3" version="23.1.5" type="github">
  <diagram name="Page-1" id="9361dd3d-8414-5efd-6122-117bd74ce7a7">
    <mxGraphModel dx="2026" dy="1111" grid="1" gridSize="10" guides="1" tooltips="1" connect="1" arrows="1" fold="1" page="0" pageScale="1.5" pageWidth="826" pageHeight="1169" background="none" math="0" shadow="0">
      <root>
        <mxCell id="0" />
        <mxCell id="1" parent="0" />
        <mxCell id="69" value="" style="fillColor=#DEE8FF;strokeColor=none;movable=0;resizable=0;rotatable=0;deletable=0;editable=0;locked=1;connectable=0;" parent="1" vertex="1">
          <mxGeometry x="40" y="10" width="2340" height="960" as="geometry" />
        </mxCell>
        <mxCell id="21" value="" style="fillColor=#66B2FF;strokeColor=#660000;fontFamily=JetBrains Mono;labelBackgroundColor=#66B2FF;fontStyle=1" parent="1" vertex="1">
          <mxGeometry x="670" y="110" width="10" height="140" as="geometry" />
        </mxCell>
        <mxCell id="22" value="1P" style="shadow=1;fillColor=#009900;strokeColor=none;fontFamily=JetBrains Mono;fontStyle=1" parent="1" vertex="1">
          <mxGeometry x="622.5" y="40" width="105" height="50" as="geometry" />
        </mxCell>
        <mxCell id="23" value="" style="edgeStyle=none;endArrow=none;dashed=1;fontFamily=JetBrains Mono;fontStyle=1" parent="1" source="22" target="21" edge="1">
          <mxGeometry x="614.4878472222224" y="174.99999999999997" width="100" height="100" as="geometry">
            <mxPoint x="674.6527777777778" y="110" as="sourcePoint" />
            <mxPoint x="674.6527777777778" y="260" as="targetPoint" />
          </mxGeometry>
        </mxCell>
        <mxCell id="24" value="DS" style="shadow=1;fillColor=#007FFF;strokeColor=none;fontFamily=JetBrains Mono;fontStyle=1" parent="1" vertex="1">
          <mxGeometry x="810" y="40" width="105" height="50" as="geometry" />
        </mxCell>
        <mxCell id="30" value="3P" style="shadow=1;fillColor=#660066;strokeColor=none;fontFamily=JetBrains Mono;fontStyle=1" parent="1" vertex="1">
          <mxGeometry x="1010" y="40" width="105" height="50" as="geometry" />
        </mxCell>
        <mxCell id="Rkp2vgVegLPEYwAy-F_K-91" value="Construct()" style="edgeStyle=none;verticalLabelPosition=top;verticalAlign=bottom;labelPosition=left;align=right;fontFamily=JetBrains Mono;labelBackgroundColor=#FF9933;fontStyle=1" edge="1" parent="1">
          <mxGeometry x="110" y="49.5" width="100" height="100" as="geometry">
            <mxPoint x="580" y="140" as="sourcePoint" />
            <mxPoint x="670" y="140" as="targetPoint" />
          </mxGeometry>
        </mxCell>
        <mxCell id="Rkp2vgVegLPEYwAy-F_K-101" value="Initalize()" style="edgeStyle=none;verticalLabelPosition=top;verticalAlign=bottom;labelPosition=left;align=right;fontFamily=JetBrains Mono;labelBackgroundColor=#FF9933;fontStyle=1" edge="1" parent="1">
          <mxGeometry x="110" y="49.5" width="100" height="100" as="geometry">
            <mxPoint x="580" y="180" as="sourcePoint" />
            <mxPoint x="670" y="180" as="targetPoint" />
          </mxGeometry>
        </mxCell>
        <mxCell id="Rkp2vgVegLPEYwAy-F_K-103" value="" style="fillColor=#FF9933;strokeColor=#660000;fontFamily=JetBrains Mono;fontStyle=1" vertex="1" parent="1">
          <mxGeometry x="670" y="320" width="10" height="160" as="geometry" />
        </mxCell>
        <mxCell id="Rkp2vgVegLPEYwAy-F_K-104" value="" style="edgeStyle=none;endArrow=none;dashed=1;fontFamily=JetBrains Mono;fontStyle=1" edge="1" parent="1">
          <mxGeometry x="614.4878472222224" y="174.99999999999997" width="100" height="100" as="geometry">
            <mxPoint x="674.5" y="250" as="sourcePoint" />
            <mxPoint x="675" y="320" as="targetPoint" />
          </mxGeometry>
        </mxCell>
        <mxCell id="Rkp2vgVegLPEYwAy-F_K-108" value="OnLeave_LocalAndAuth" style="edgeStyle=none;verticalLabelPosition=top;verticalAlign=bottom;labelPosition=left;align=right;fontFamily=JetBrains Mono;labelBackgroundColor=#66B2FF;fontStyle=1" edge="1" parent="1">
          <mxGeometry x="110" y="49.5" width="100" height="100" as="geometry">
            <mxPoint x="580" y="214.5" as="sourcePoint" />
            <mxPoint x="670" y="214.5" as="targetPoint" />
          </mxGeometry>
        </mxCell>
        <mxCell id="Rkp2vgVegLPEYwAy-F_K-109" value="OnLeave_AllSide" style="edgeStyle=none;verticalLabelPosition=top;verticalAlign=bottom;labelPosition=left;align=right;fontFamily=JetBrains Mono;labelBackgroundColor=#66B2FF;fontStyle=1" edge="1" parent="1">
          <mxGeometry x="110" y="49.5" width="100" height="100" as="geometry">
            <mxPoint x="580" y="249" as="sourcePoint" />
            <mxPoint x="670" y="249" as="targetPoint" />
          </mxGeometry>
        </mxCell>
        <mxCell id="Rkp2vgVegLPEYwAy-F_K-111" value="TransitState" style="edgeStyle=none;verticalLabelPosition=top;verticalAlign=bottom;labelPosition=left;align=right;fontFamily=JetBrains Mono;fontStyle=1" edge="1" parent="1">
          <mxGeometry x="110" y="49.5" width="100" height="100" as="geometry">
            <mxPoint x="580" y="280" as="sourcePoint" />
            <mxPoint x="670" y="280" as="targetPoint" />
          </mxGeometry>
        </mxCell>
        <mxCell id="Rkp2vgVegLPEYwAy-F_K-112" value="OnPrepare_Local" style="edgeStyle=none;verticalLabelPosition=top;verticalAlign=bottom;labelPosition=left;align=right;fontFamily=JetBrains Mono;labelBackgroundColor=#FF9933;fontStyle=1" edge="1" parent="1">
          <mxGeometry x="110" y="49.5" width="100" height="100" as="geometry">
            <mxPoint x="580" y="319" as="sourcePoint" />
            <mxPoint x="670" y="319" as="targetPoint" />
          </mxGeometry>
        </mxCell>
        <mxCell id="Rkp2vgVegLPEYwAy-F_K-113" value="Serialize" style="edgeStyle=none;verticalLabelPosition=top;verticalAlign=bottom;labelPosition=left;align=right;fontFamily=JetBrains Mono;labelBackgroundColor=#FF9933;fontStyle=1" edge="1" parent="1">
          <mxGeometry width="100" height="100" as="geometry">
            <mxPoint x="580" y="350" as="sourcePoint" />
            <mxPoint x="670" y="350" as="targetPoint" />
            <mxPoint as="offset" />
          </mxGeometry>
        </mxCell>
        <mxCell id="Rkp2vgVegLPEYwAy-F_K-114" value="" style="fillColor=#66B2FF;strokeColor=#660000;fontFamily=JetBrains Mono;fontStyle=1" vertex="1" parent="1">
          <mxGeometry x="857.5" y="352.08" width="10" height="217.92" as="geometry" />
        </mxCell>
        <mxCell id="Rkp2vgVegLPEYwAy-F_K-116" value="" style="edgeStyle=none;endArrow=none;dashed=1;fontFamily=JetBrains Mono;fontStyle=1" edge="1" parent="1" target="Rkp2vgVegLPEYwAy-F_K-114">
          <mxGeometry x="614.4878472222224" y="174.99999999999997" width="100" height="100" as="geometry">
            <mxPoint x="862" y="90" as="sourcePoint" />
            <mxPoint x="862" y="140" as="targetPoint" />
          </mxGeometry>
        </mxCell>
        <mxCell id="Rkp2vgVegLPEYwAy-F_K-120" value="AllocateState()" style="edgeStyle=none;verticalLabelPosition=top;verticalAlign=bottom;labelPosition=left;align=right;fontFamily=JetBrains Mono;labelBackgroundColor=#FF9933;fontStyle=1" edge="1" parent="1">
          <mxGeometry width="100" height="100" as="geometry">
            <mxPoint x="767.5" y="409.5" as="sourcePoint" />
            <mxPoint x="857.5" y="409.5" as="targetPoint" />
            <mxPoint x="28" y="1" as="offset" />
          </mxGeometry>
        </mxCell>
        <mxCell id="Rkp2vgVegLPEYwAy-F_K-121" value="Initialize" style="edgeStyle=none;verticalLabelPosition=top;verticalAlign=bottom;labelPosition=left;align=right;fontFamily=JetBrains Mono;labelBackgroundColor=#FF9933;fontStyle=1" edge="1" parent="1">
          <mxGeometry width="100" height="100" as="geometry">
            <mxPoint x="767.5" y="450" as="sourcePoint" />
            <mxPoint x="857.5" y="450" as="targetPoint" />
            <mxPoint x="28" as="offset" />
          </mxGeometry>
        </mxCell>
        <mxCell id="Rkp2vgVegLPEYwAy-F_K-122" value="Serialize" style="edgeStyle=none;verticalLabelPosition=top;verticalAlign=bottom;labelPosition=left;align=right;fontFamily=JetBrains Mono;labelBackgroundColor=#66B2FF;fontStyle=1" edge="1" parent="1">
          <mxGeometry width="100" height="100" as="geometry">
            <mxPoint x="767.5" y="490" as="sourcePoint" />
            <mxPoint x="857.5" y="490" as="targetPoint" />
            <mxPoint x="28" as="offset" />
          </mxGeometry>
        </mxCell>
        <mxCell id="Rkp2vgVegLPEYwAy-F_K-123" value="OnLeave_LocalAndAuth" style="edgeStyle=none;verticalLabelPosition=top;verticalAlign=bottom;labelPosition=left;align=right;fontFamily=JetBrains Mono;labelBackgroundColor=#66B2FF;fontStyle=1" edge="1" parent="1">
          <mxGeometry width="100" height="100" as="geometry">
            <mxPoint x="767.5" y="530" as="sourcePoint" />
            <mxPoint x="857.5" y="530" as="targetPoint" />
            <mxPoint x="28" as="offset" />
          </mxGeometry>
        </mxCell>
        <mxCell id="Rkp2vgVegLPEYwAy-F_K-124" value="OnLeave_AllSide" style="edgeStyle=none;verticalLabelPosition=top;verticalAlign=bottom;labelPosition=left;align=right;fontFamily=JetBrains Mono;labelBackgroundColor=#66B2FF;fontStyle=1" edge="1" parent="1">
          <mxGeometry width="100" height="100" as="geometry">
            <mxPoint x="767.5" y="570" as="sourcePoint" />
            <mxPoint x="857.5" y="570" as="targetPoint" />
            <mxPoint x="28" as="offset" />
          </mxGeometry>
        </mxCell>
        <mxCell id="Rkp2vgVegLPEYwAy-F_K-125" value="OnEnter_AllSide" style="edgeStyle=none;verticalLabelPosition=top;verticalAlign=bottom;labelPosition=left;align=right;fontFamily=JetBrains Mono;labelBackgroundColor=#FF9933;fontStyle=1" edge="1" parent="1">
          <mxGeometry width="100" height="100" as="geometry">
            <mxPoint x="580" y="400" as="sourcePoint" />
            <mxPoint x="670" y="400" as="targetPoint" />
            <mxPoint as="offset" />
          </mxGeometry>
        </mxCell>
        <mxCell id="Rkp2vgVegLPEYwAy-F_K-127" value="RPC" style="edgeStyle=none;verticalLabelPosition=top;verticalAlign=bottom;labelPosition=left;align=center;exitX=0.8;exitY=0.317;exitDx=0;exitDy=0;exitPerimeter=0;dashed=1;fontFamily=JetBrains Mono;fontStyle=1" edge="1" parent="1" source="Rkp2vgVegLPEYwAy-F_K-103">
          <mxGeometry width="100" height="100" as="geometry">
            <mxPoint x="767.5" y="370" as="sourcePoint" />
            <mxPoint x="857.5" y="370" as="targetPoint" />
            <mxPoint x="2" y="-10" as="offset" />
          </mxGeometry>
        </mxCell>
        <mxCell id="Rkp2vgVegLPEYwAy-F_K-128" value="" style="fillColor=#FF9933;strokeColor=#660000;fontFamily=JetBrains Mono;fontStyle=1" vertex="1" parent="1">
          <mxGeometry x="857.5" y="640" width="10" height="80" as="geometry" />
        </mxCell>
        <mxCell id="Rkp2vgVegLPEYwAy-F_K-129" value="" style="edgeStyle=none;endArrow=none;dashed=1;fontFamily=JetBrains Mono;fontStyle=1" edge="1" parent="1">
          <mxGeometry x="614.4878472222224" y="174.99999999999997" width="100" height="100" as="geometry">
            <mxPoint x="862" y="570" as="sourcePoint" />
            <mxPoint x="862.5" y="640" as="targetPoint" />
          </mxGeometry>
        </mxCell>
        <mxCell id="Rkp2vgVegLPEYwAy-F_K-130" value="TransitState" style="edgeStyle=none;verticalLabelPosition=top;verticalAlign=bottom;labelPosition=left;align=right;fontFamily=JetBrains Mono;fontStyle=1" edge="1" parent="1">
          <mxGeometry x="110" y="49.5" width="100" height="100" as="geometry">
            <mxPoint x="767.5" y="600" as="sourcePoint" />
            <mxPoint x="857.5" y="600" as="targetPoint" />
          </mxGeometry>
        </mxCell>
        <mxCell id="Rkp2vgVegLPEYwAy-F_K-132" value="Serialize" style="edgeStyle=none;verticalLabelPosition=top;verticalAlign=bottom;labelPosition=left;align=right;fontFamily=JetBrains Mono;labelBackgroundColor=#FF9933;fontStyle=1" edge="1" parent="1">
          <mxGeometry width="100" height="100" as="geometry">
            <mxPoint x="767.5" y="640" as="sourcePoint" />
            <mxPoint x="857.5" y="640" as="targetPoint" />
            <mxPoint as="offset" />
          </mxGeometry>
        </mxCell>
        <mxCell id="Rkp2vgVegLPEYwAy-F_K-133" value="OnEnter_AllSide" style="edgeStyle=none;verticalLabelPosition=top;verticalAlign=bottom;labelPosition=left;align=right;fontFamily=JetBrains Mono;labelBackgroundColor=#FF9933;fontStyle=1" edge="1" parent="1">
          <mxGeometry x="110" y="49.5" width="100" height="100" as="geometry">
            <mxPoint x="767.5" y="670" as="sourcePoint" />
            <mxPoint x="857.5" y="670" as="targetPoint" />
          </mxGeometry>
        </mxCell>
        <mxCell id="Rkp2vgVegLPEYwAy-F_K-134" value="OnEnter_LocalAndAuth" style="edgeStyle=none;verticalLabelPosition=top;verticalAlign=bottom;labelPosition=left;align=right;fontFamily=JetBrains Mono;labelBackgroundColor=#FF9933;fontStyle=1" edge="1" parent="1">
          <mxGeometry width="100" height="100" as="geometry">
            <mxPoint x="580" y="434.71" as="sourcePoint" />
            <mxPoint x="670" y="434.71" as="targetPoint" />
            <mxPoint as="offset" />
          </mxGeometry>
        </mxCell>
        <mxCell id="Rkp2vgVegLPEYwAy-F_K-135" value="OnEnter_LocalAndAuth" style="edgeStyle=none;verticalLabelPosition=top;verticalAlign=bottom;labelPosition=left;align=right;fontFamily=JetBrains Mono;labelBackgroundColor=#FF9933;fontStyle=1" edge="1" parent="1">
          <mxGeometry width="100" height="100" as="geometry">
            <mxPoint x="767.5" y="699.58" as="sourcePoint" />
            <mxPoint x="857.5" y="699.58" as="targetPoint" />
            <mxPoint as="offset" />
          </mxGeometry>
        </mxCell>
        <mxCell id="Rkp2vgVegLPEYwAy-F_K-136" value="EnterState" style="edgeStyle=none;verticalLabelPosition=top;verticalAlign=bottom;labelPosition=left;align=right;fontFamily=JetBrains Mono;labelBorderColor=none;fontStyle=1" edge="1" parent="1">
          <mxGeometry x="110" y="49.5" width="100" height="100" as="geometry">
            <mxPoint x="580" y="110" as="sourcePoint" />
            <mxPoint x="670" y="110" as="targetPoint" />
          </mxGeometry>
        </mxCell>
        <mxCell id="Rkp2vgVegLPEYwAy-F_K-138" value="Multicast" style="edgeStyle=none;verticalLabelPosition=top;verticalAlign=bottom;labelPosition=left;align=center;exitX=0.8;exitY=0.317;exitDx=0;exitDy=0;exitPerimeter=0;dashed=1;fontFamily=JetBrains Mono;fontStyle=1" edge="1" parent="1">
          <mxGeometry width="100" height="100" as="geometry">
            <mxPoint x="867.5" y="389.96" as="sourcePoint" />
            <mxPoint x="1060" y="388.96" as="targetPoint" />
            <mxPoint x="3" y="-10" as="offset" />
          </mxGeometry>
        </mxCell>
        <mxCell id="Rkp2vgVegLPEYwAy-F_K-139" value="" style="fillColor=#66B2FF;strokeColor=#660000;fontFamily=JetBrains Mono;fontStyle=1" vertex="1" parent="1">
          <mxGeometry x="1060" y="371.04" width="10" height="178.96" as="geometry" />
        </mxCell>
        <mxCell id="Rkp2vgVegLPEYwAy-F_K-140" value="AllocateState()" style="edgeStyle=none;verticalLabelPosition=top;verticalAlign=bottom;labelPosition=left;align=right;fontFamily=JetBrains Mono;labelBackgroundColor=#FF9933;fontStyle=1" edge="1" parent="1">
          <mxGeometry width="100" height="100" as="geometry">
            <mxPoint x="970" y="428.46" as="sourcePoint" />
            <mxPoint x="1060" y="428.46" as="targetPoint" />
            <mxPoint x="28" y="1" as="offset" />
          </mxGeometry>
        </mxCell>
        <mxCell id="Rkp2vgVegLPEYwAy-F_K-141" value="Initialize" style="edgeStyle=none;verticalLabelPosition=top;verticalAlign=bottom;labelPosition=left;align=right;fontFamily=JetBrains Mono;labelBackgroundColor=#FF9933;fontStyle=1" edge="1" parent="1">
          <mxGeometry width="100" height="100" as="geometry">
            <mxPoint x="970" y="468.96" as="sourcePoint" />
            <mxPoint x="1060" y="468.96" as="targetPoint" />
            <mxPoint x="28" as="offset" />
          </mxGeometry>
        </mxCell>
        <mxCell id="Rkp2vgVegLPEYwAy-F_K-142" value="Serialize" style="edgeStyle=none;verticalLabelPosition=top;verticalAlign=bottom;labelPosition=left;align=right;fontFamily=JetBrains Mono;labelBackgroundColor=#66B2FF;fontStyle=1" edge="1" parent="1">
          <mxGeometry width="100" height="100" as="geometry">
            <mxPoint x="970" y="508.96" as="sourcePoint" />
            <mxPoint x="1060" y="508.96" as="targetPoint" />
            <mxPoint x="28" as="offset" />
          </mxGeometry>
        </mxCell>
        <mxCell id="Rkp2vgVegLPEYwAy-F_K-144" value="OnLeave_AllSide" style="edgeStyle=none;verticalLabelPosition=top;verticalAlign=bottom;labelPosition=left;align=right;fontFamily=JetBrains Mono;labelBackgroundColor=#66B2FF;fontStyle=1" edge="1" parent="1">
          <mxGeometry width="100" height="100" as="geometry">
            <mxPoint x="970" y="550" as="sourcePoint" />
            <mxPoint x="1060" y="550" as="targetPoint" />
            <mxPoint x="28" as="offset" />
          </mxGeometry>
        </mxCell>
        <mxCell id="Rkp2vgVegLPEYwAy-F_K-145" value="TransitState" style="edgeStyle=none;verticalLabelPosition=top;verticalAlign=bottom;labelPosition=left;align=right;fontFamily=JetBrains Mono;fontStyle=1" edge="1" parent="1">
          <mxGeometry x="110" y="49.5" width="100" height="100" as="geometry">
            <mxPoint x="970" y="580" as="sourcePoint" />
            <mxPoint x="1060" y="580" as="targetPoint" />
          </mxGeometry>
        </mxCell>
        <mxCell id="Rkp2vgVegLPEYwAy-F_K-146" value="" style="edgeStyle=none;endArrow=none;dashed=1;fontFamily=JetBrains Mono;exitX=0.5;exitY=1;exitDx=0;exitDy=0;fontStyle=1" edge="1" parent="1" source="Rkp2vgVegLPEYwAy-F_K-139">
          <mxGeometry x="614.4878472222224" y="174.99999999999997" width="100" height="100" as="geometry">
            <mxPoint x="1064.5" y="588.96" as="sourcePoint" />
            <mxPoint x="1065" y="658.96" as="targetPoint" />
          </mxGeometry>
        </mxCell>
        <mxCell id="Rkp2vgVegLPEYwAy-F_K-147" value="" style="fillColor=#FF9933;strokeColor=#660000;fontFamily=JetBrains Mono;fontStyle=1" vertex="1" parent="1">
          <mxGeometry x="1060" y="612.62" width="10" height="57.38" as="geometry" />
        </mxCell>
        <mxCell id="Rkp2vgVegLPEYwAy-F_K-149" value="Serialize" style="edgeStyle=none;verticalLabelPosition=top;verticalAlign=bottom;labelPosition=left;align=right;fontFamily=JetBrains Mono;labelBackgroundColor=#FF9933;fontStyle=1" edge="1" parent="1">
          <mxGeometry width="100" height="100" as="geometry">
            <mxPoint x="970" y="612.62" as="sourcePoint" />
            <mxPoint x="1060" y="612.62" as="targetPoint" />
            <mxPoint as="offset" />
          </mxGeometry>
        </mxCell>
        <mxCell id="Rkp2vgVegLPEYwAy-F_K-150" value="OnEnter_AllSide" style="edgeStyle=none;verticalLabelPosition=top;verticalAlign=bottom;labelPosition=left;align=right;fontFamily=JetBrains Mono;labelBackgroundColor=#FF9933;fontStyle=1" edge="1" parent="1">
          <mxGeometry x="110" y="49.5" width="100" height="100" as="geometry">
            <mxPoint x="970" y="643.66" as="sourcePoint" />
            <mxPoint x="1060" y="643.66" as="targetPoint" />
          </mxGeometry>
        </mxCell>
        <mxCell id="Rkp2vgVegLPEYwAy-F_K-152" value="" style="edgeStyle=none;endArrow=none;dashed=1;fontFamily=JetBrains Mono;fontStyle=1" edge="1" target="Rkp2vgVegLPEYwAy-F_K-139" parent="1">
          <mxGeometry x="614.4878472222224" y="174.99999999999997" width="100" height="100" as="geometry">
            <mxPoint x="1064.5" y="90" as="sourcePoint" />
            <mxPoint x="1064.5" y="140" as="targetPoint" />
          </mxGeometry>
        </mxCell>
        <mxCell id="Rkp2vgVegLPEYwAy-F_K-155" value="" style="fillColor=#66B2FF;strokeColor=#660000;fontFamily=JetBrains Mono;labelBackgroundColor=#66B2FF;fontStyle=1" vertex="1" parent="1">
          <mxGeometry x="1360" y="110" width="10" height="140" as="geometry" />
        </mxCell>
        <mxCell id="Rkp2vgVegLPEYwAy-F_K-156" value="DS" style="shadow=1;fillColor=#007FFF;strokeColor=none;fontFamily=JetBrains Mono;fontStyle=1" vertex="1" parent="1">
          <mxGeometry x="1312.5" y="40" width="105" height="50" as="geometry" />
        </mxCell>
        <mxCell id="Rkp2vgVegLPEYwAy-F_K-157" value="" style="edgeStyle=none;endArrow=none;dashed=1;fontFamily=JetBrains Mono;fontStyle=1" edge="1" source="Rkp2vgVegLPEYwAy-F_K-156" target="Rkp2vgVegLPEYwAy-F_K-155" parent="1">
          <mxGeometry x="614.4878472222224" y="174.99999999999997" width="100" height="100" as="geometry">
            <mxPoint x="1364.6527777777778" y="110" as="sourcePoint" />
            <mxPoint x="1364.6527777777778" y="260" as="targetPoint" />
          </mxGeometry>
        </mxCell>
        <mxCell id="Rkp2vgVegLPEYwAy-F_K-158" value="1P" style="shadow=1;fillColor=#009900;strokeColor=none;fontFamily=JetBrains Mono;fontStyle=1" vertex="1" parent="1">
          <mxGeometry x="1500" y="40" width="105" height="50" as="geometry" />
        </mxCell>
        <mxCell id="Rkp2vgVegLPEYwAy-F_K-159" value="3P" style="shadow=1;fillColor=#660066;strokeColor=none;fontFamily=JetBrains Mono;fontStyle=1" vertex="1" parent="1">
          <mxGeometry x="1700" y="40" width="105" height="50" as="geometry" />
        </mxCell>
        <mxCell id="Rkp2vgVegLPEYwAy-F_K-160" value="Construct()" style="edgeStyle=none;verticalLabelPosition=top;verticalAlign=bottom;labelPosition=left;align=right;fontFamily=JetBrains Mono;labelBackgroundColor=#FF9933;fontStyle=1" edge="1" parent="1">
          <mxGeometry x="110" y="49.5" width="100" height="100" as="geometry">
            <mxPoint x="1270" y="140" as="sourcePoint" />
            <mxPoint x="1360" y="140" as="targetPoint" />
          </mxGeometry>
        </mxCell>
        <mxCell id="Rkp2vgVegLPEYwAy-F_K-161" value="Initalize()" style="edgeStyle=none;verticalLabelPosition=top;verticalAlign=bottom;labelPosition=left;align=right;fontFamily=JetBrains Mono;labelBackgroundColor=#FF9933;fontStyle=1" edge="1" parent="1">
          <mxGeometry x="110" y="49.5" width="100" height="100" as="geometry">
            <mxPoint x="1270" y="180" as="sourcePoint" />
            <mxPoint x="1360" y="180" as="targetPoint" />
          </mxGeometry>
        </mxCell>
        <mxCell id="Rkp2vgVegLPEYwAy-F_K-162" value="" style="fillColor=#FF9933;strokeColor=#660000;fontFamily=JetBrains Mono;fontStyle=1" vertex="1" parent="1">
          <mxGeometry x="1360" y="320" width="10" height="160" as="geometry" />
        </mxCell>
        <mxCell id="Rkp2vgVegLPEYwAy-F_K-163" value="" style="edgeStyle=none;endArrow=none;dashed=1;fontFamily=JetBrains Mono;fontStyle=1" edge="1" parent="1">
          <mxGeometry x="614.4878472222224" y="174.99999999999997" width="100" height="100" as="geometry">
            <mxPoint x="1364.5" y="250" as="sourcePoint" />
            <mxPoint x="1365" y="320" as="targetPoint" />
          </mxGeometry>
        </mxCell>
        <mxCell id="Rkp2vgVegLPEYwAy-F_K-164" value="OnLeave_LocalAndAuth" style="edgeStyle=none;verticalLabelPosition=top;verticalAlign=bottom;labelPosition=left;align=right;fontFamily=JetBrains Mono;labelBackgroundColor=#66B2FF;fontStyle=1" edge="1" parent="1">
          <mxGeometry x="110" y="49.5" width="100" height="100" as="geometry">
            <mxPoint x="1270" y="214.5" as="sourcePoint" />
            <mxPoint x="1360" y="214.5" as="targetPoint" />
          </mxGeometry>
        </mxCell>
        <mxCell id="Rkp2vgVegLPEYwAy-F_K-165" value="OnLeave_AllSide" style="edgeStyle=none;verticalLabelPosition=top;verticalAlign=bottom;labelPosition=left;align=right;fontFamily=JetBrains Mono;labelBackgroundColor=#66B2FF;fontStyle=1" edge="1" parent="1">
          <mxGeometry x="110" y="49.5" width="100" height="100" as="geometry">
            <mxPoint x="1270" y="249" as="sourcePoint" />
            <mxPoint x="1360" y="249" as="targetPoint" />
          </mxGeometry>
        </mxCell>
        <mxCell id="Rkp2vgVegLPEYwAy-F_K-166" value="TransitState" style="edgeStyle=none;verticalLabelPosition=top;verticalAlign=bottom;labelPosition=left;align=right;fontFamily=JetBrains Mono;fontStyle=1" edge="1" parent="1">
          <mxGeometry x="110" y="49.5" width="100" height="100" as="geometry">
            <mxPoint x="1270" y="280" as="sourcePoint" />
            <mxPoint x="1360" y="280" as="targetPoint" />
          </mxGeometry>
        </mxCell>
        <mxCell id="Rkp2vgVegLPEYwAy-F_K-167" value="OnPrepare_Local" style="edgeStyle=none;verticalLabelPosition=top;verticalAlign=bottom;labelPosition=left;align=right;fontFamily=JetBrains Mono;labelBackgroundColor=#FF9933;fontStyle=1" edge="1" parent="1">
          <mxGeometry x="110" y="49.5" width="100" height="100" as="geometry">
            <mxPoint x="1270" y="319" as="sourcePoint" />
            <mxPoint x="1360" y="319" as="targetPoint" />
          </mxGeometry>
        </mxCell>
        <mxCell id="Rkp2vgVegLPEYwAy-F_K-168" value="Serialize" style="edgeStyle=none;verticalLabelPosition=top;verticalAlign=bottom;labelPosition=left;align=right;fontFamily=JetBrains Mono;labelBackgroundColor=#FF9933;fontStyle=1" edge="1" parent="1">
          <mxGeometry width="100" height="100" as="geometry">
            <mxPoint x="1270" y="350" as="sourcePoint" />
            <mxPoint x="1360" y="350" as="targetPoint" />
            <mxPoint as="offset" />
          </mxGeometry>
        </mxCell>
        <mxCell id="Rkp2vgVegLPEYwAy-F_K-169" value="" style="fillColor=#66B2FF;strokeColor=#660000;fontFamily=JetBrains Mono;fontStyle=1" vertex="1" parent="1">
          <mxGeometry x="1547.5" y="352.08" width="10" height="217.92" as="geometry" />
        </mxCell>
        <mxCell id="Rkp2vgVegLPEYwAy-F_K-170" value="" style="edgeStyle=none;endArrow=none;dashed=1;fontFamily=JetBrains Mono;fontStyle=1" edge="1" target="Rkp2vgVegLPEYwAy-F_K-169" parent="1">
          <mxGeometry x="614.4878472222224" y="174.99999999999997" width="100" height="100" as="geometry">
            <mxPoint x="1552" y="90" as="sourcePoint" />
            <mxPoint x="1552" y="140" as="targetPoint" />
          </mxGeometry>
        </mxCell>
        <mxCell id="Rkp2vgVegLPEYwAy-F_K-171" value="AllocateState()" style="edgeStyle=none;verticalLabelPosition=top;verticalAlign=bottom;labelPosition=left;align=right;fontFamily=JetBrains Mono;labelBackgroundColor=#FF9933;fontStyle=1" edge="1" parent="1">
          <mxGeometry width="100" height="100" as="geometry">
            <mxPoint x="1457.5" y="409.5" as="sourcePoint" />
            <mxPoint x="1547.5" y="409.5" as="targetPoint" />
            <mxPoint x="28" y="1" as="offset" />
          </mxGeometry>
        </mxCell>
        <mxCell id="Rkp2vgVegLPEYwAy-F_K-172" value="Initialize" style="edgeStyle=none;verticalLabelPosition=top;verticalAlign=bottom;labelPosition=left;align=right;fontFamily=JetBrains Mono;labelBackgroundColor=#FF9933;fontStyle=1" edge="1" parent="1">
          <mxGeometry width="100" height="100" as="geometry">
            <mxPoint x="1457.5" y="450" as="sourcePoint" />
            <mxPoint x="1547.5" y="450" as="targetPoint" />
            <mxPoint x="28" as="offset" />
          </mxGeometry>
        </mxCell>
        <mxCell id="Rkp2vgVegLPEYwAy-F_K-173" value="Serialize" style="edgeStyle=none;verticalLabelPosition=top;verticalAlign=bottom;labelPosition=left;align=right;fontFamily=JetBrains Mono;labelBackgroundColor=#66B2FF;fontStyle=1" edge="1" parent="1">
          <mxGeometry width="100" height="100" as="geometry">
            <mxPoint x="1457.5" y="490" as="sourcePoint" />
            <mxPoint x="1547.5" y="490" as="targetPoint" />
            <mxPoint x="28" as="offset" />
          </mxGeometry>
        </mxCell>
        <mxCell id="Rkp2vgVegLPEYwAy-F_K-174" value="OnLeave_LocalAndAuth" style="edgeStyle=none;verticalLabelPosition=top;verticalAlign=bottom;labelPosition=left;align=right;fontFamily=JetBrains Mono;labelBackgroundColor=#66B2FF;fontStyle=1" edge="1" parent="1">
          <mxGeometry width="100" height="100" as="geometry">
            <mxPoint x="1457.5" y="530" as="sourcePoint" />
            <mxPoint x="1547.5" y="530" as="targetPoint" />
            <mxPoint x="28" as="offset" />
          </mxGeometry>
        </mxCell>
        <mxCell id="Rkp2vgVegLPEYwAy-F_K-175" value="OnLeave_AllSide" style="edgeStyle=none;verticalLabelPosition=top;verticalAlign=bottom;labelPosition=left;align=right;fontFamily=JetBrains Mono;labelBackgroundColor=#66B2FF;fontStyle=1" edge="1" parent="1">
          <mxGeometry width="100" height="100" as="geometry">
            <mxPoint x="1457.5" y="570" as="sourcePoint" />
            <mxPoint x="1547.5" y="570" as="targetPoint" />
            <mxPoint x="28" as="offset" />
          </mxGeometry>
        </mxCell>
        <mxCell id="Rkp2vgVegLPEYwAy-F_K-176" value="OnEnter_AllSide" style="edgeStyle=none;verticalLabelPosition=top;verticalAlign=bottom;labelPosition=left;align=right;fontFamily=JetBrains Mono;labelBackgroundColor=#FF9933;fontStyle=1" edge="1" parent="1">
          <mxGeometry width="100" height="100" as="geometry">
            <mxPoint x="1270" y="400" as="sourcePoint" />
            <mxPoint x="1360" y="400" as="targetPoint" />
            <mxPoint as="offset" />
          </mxGeometry>
        </mxCell>
        <mxCell id="Rkp2vgVegLPEYwAy-F_K-177" value="Multicast(如果有)" style="edgeStyle=none;verticalLabelPosition=top;verticalAlign=bottom;labelPosition=left;align=center;exitX=0.8;exitY=0.317;exitDx=0;exitDy=0;exitPerimeter=0;dashed=1;fontFamily=JetBrains Mono;fontStyle=1" edge="1" source="Rkp2vgVegLPEYwAy-F_K-162" parent="1">
          <mxGeometry width="100" height="100" as="geometry">
            <mxPoint x="1457.5" y="370" as="sourcePoint" />
            <mxPoint x="1547.5" y="370" as="targetPoint" />
            <mxPoint x="2" y="-10" as="offset" />
          </mxGeometry>
        </mxCell>
        <mxCell id="Rkp2vgVegLPEYwAy-F_K-178" value="" style="fillColor=#FF9933;strokeColor=#660000;fontFamily=JetBrains Mono;fontStyle=1" vertex="1" parent="1">
          <mxGeometry x="1547.5" y="640" width="10" height="80" as="geometry" />
        </mxCell>
        <mxCell id="Rkp2vgVegLPEYwAy-F_K-179" value="" style="edgeStyle=none;endArrow=none;dashed=1;fontFamily=JetBrains Mono;fontStyle=1" edge="1" parent="1">
          <mxGeometry x="614.4878472222224" y="174.99999999999997" width="100" height="100" as="geometry">
            <mxPoint x="1552" y="570" as="sourcePoint" />
            <mxPoint x="1552.5" y="640" as="targetPoint" />
          </mxGeometry>
        </mxCell>
        <mxCell id="Rkp2vgVegLPEYwAy-F_K-180" value="TransitState" style="edgeStyle=none;verticalLabelPosition=top;verticalAlign=bottom;labelPosition=left;align=right;fontFamily=JetBrains Mono;fontStyle=1" edge="1" parent="1">
          <mxGeometry x="110" y="49.5" width="100" height="100" as="geometry">
            <mxPoint x="1457.5" y="600" as="sourcePoint" />
            <mxPoint x="1547.5" y="600" as="targetPoint" />
          </mxGeometry>
        </mxCell>
        <mxCell id="Rkp2vgVegLPEYwAy-F_K-181" value="Serialize" style="edgeStyle=none;verticalLabelPosition=top;verticalAlign=bottom;labelPosition=left;align=right;fontFamily=JetBrains Mono;labelBackgroundColor=#FF9933;fontStyle=1" edge="1" parent="1">
          <mxGeometry width="100" height="100" as="geometry">
            <mxPoint x="1457.5" y="640" as="sourcePoint" />
            <mxPoint x="1547.5" y="640" as="targetPoint" />
            <mxPoint as="offset" />
          </mxGeometry>
        </mxCell>
        <mxCell id="Rkp2vgVegLPEYwAy-F_K-182" value="OnEnter_AllSide" style="edgeStyle=none;verticalLabelPosition=top;verticalAlign=bottom;labelPosition=left;align=right;fontFamily=JetBrains Mono;labelBackgroundColor=#FF9933;fontStyle=1" edge="1" parent="1">
          <mxGeometry x="110" y="49.5" width="100" height="100" as="geometry">
            <mxPoint x="1457.5" y="670" as="sourcePoint" />
            <mxPoint x="1547.5" y="670" as="targetPoint" />
          </mxGeometry>
        </mxCell>
        <mxCell id="Rkp2vgVegLPEYwAy-F_K-183" value="OnEnter_LocalAndAuth" style="edgeStyle=none;verticalLabelPosition=top;verticalAlign=bottom;labelPosition=left;align=right;fontFamily=JetBrains Mono;labelBackgroundColor=#FF9933;fontStyle=1" edge="1" parent="1">
          <mxGeometry width="100" height="100" as="geometry">
            <mxPoint x="1270" y="434.71" as="sourcePoint" />
            <mxPoint x="1360" y="434.71" as="targetPoint" />
            <mxPoint as="offset" />
          </mxGeometry>
        </mxCell>
        <mxCell id="Rkp2vgVegLPEYwAy-F_K-184" value="OnEnter_LocalAndAuth" style="edgeStyle=none;verticalLabelPosition=top;verticalAlign=bottom;labelPosition=left;align=right;fontFamily=JetBrains Mono;labelBackgroundColor=#FF9933;fontStyle=1" edge="1" parent="1">
          <mxGeometry width="100" height="100" as="geometry">
            <mxPoint x="1457.5" y="699.58" as="sourcePoint" />
            <mxPoint x="1547.5" y="699.58" as="targetPoint" />
            <mxPoint as="offset" />
          </mxGeometry>
        </mxCell>
        <mxCell id="Rkp2vgVegLPEYwAy-F_K-185" value="EnterState" style="edgeStyle=none;verticalLabelPosition=top;verticalAlign=bottom;labelPosition=left;align=right;fontFamily=JetBrains Mono;labelBorderColor=none;fontStyle=1" edge="1" parent="1">
          <mxGeometry x="110" y="49.5" width="100" height="100" as="geometry">
            <mxPoint x="1270" y="110" as="sourcePoint" />
            <mxPoint x="1360" y="110" as="targetPoint" />
          </mxGeometry>
        </mxCell>
        <mxCell id="Rkp2vgVegLPEYwAy-F_K-187" value="" style="fillColor=#66B2FF;strokeColor=#660000;fontFamily=JetBrains Mono;fontStyle=1" vertex="1" parent="1">
          <mxGeometry x="1750" y="371.04" width="10" height="178.96" as="geometry" />
        </mxCell>
        <mxCell id="Rkp2vgVegLPEYwAy-F_K-188" value="AllocateState()" style="edgeStyle=none;verticalLabelPosition=top;verticalAlign=bottom;labelPosition=left;align=right;fontFamily=JetBrains Mono;labelBackgroundColor=#FF9933;fontStyle=1" edge="1" parent="1">
          <mxGeometry width="100" height="100" as="geometry">
            <mxPoint x="1660" y="428.46" as="sourcePoint" />
            <mxPoint x="1750" y="428.46" as="targetPoint" />
            <mxPoint x="28" y="1" as="offset" />
          </mxGeometry>
        </mxCell>
        <mxCell id="Rkp2vgVegLPEYwAy-F_K-189" value="Initialize" style="edgeStyle=none;verticalLabelPosition=top;verticalAlign=bottom;labelPosition=left;align=right;fontFamily=JetBrains Mono;labelBackgroundColor=#FF9933;fontStyle=1" edge="1" parent="1">
          <mxGeometry width="100" height="100" as="geometry">
            <mxPoint x="1660" y="468.96" as="sourcePoint" />
            <mxPoint x="1750" y="468.96" as="targetPoint" />
            <mxPoint x="28" as="offset" />
          </mxGeometry>
        </mxCell>
        <mxCell id="Rkp2vgVegLPEYwAy-F_K-190" value="Serialize" style="edgeStyle=none;verticalLabelPosition=top;verticalAlign=bottom;labelPosition=left;align=right;fontFamily=JetBrains Mono;labelBackgroundColor=#66B2FF;fontStyle=1" edge="1" parent="1">
          <mxGeometry width="100" height="100" as="geometry">
            <mxPoint x="1660" y="508.96000000000004" as="sourcePoint" />
            <mxPoint x="1750" y="508.96000000000004" as="targetPoint" />
            <mxPoint x="28" as="offset" />
          </mxGeometry>
        </mxCell>
        <mxCell id="Rkp2vgVegLPEYwAy-F_K-191" value="OnLeave_AllSide" style="edgeStyle=none;verticalLabelPosition=top;verticalAlign=bottom;labelPosition=left;align=right;fontFamily=JetBrains Mono;labelBackgroundColor=#66B2FF;fontStyle=1" edge="1" parent="1">
          <mxGeometry width="100" height="100" as="geometry">
            <mxPoint x="1660" y="550" as="sourcePoint" />
            <mxPoint x="1750" y="550" as="targetPoint" />
            <mxPoint x="28" as="offset" />
          </mxGeometry>
        </mxCell>
        <mxCell id="Rkp2vgVegLPEYwAy-F_K-192" value="TransitState" style="edgeStyle=none;verticalLabelPosition=top;verticalAlign=bottom;labelPosition=left;align=right;fontFamily=JetBrains Mono;fontStyle=1" edge="1" parent="1">
          <mxGeometry x="110" y="49.5" width="100" height="100" as="geometry">
            <mxPoint x="1660" y="580" as="sourcePoint" />
            <mxPoint x="1750" y="580" as="targetPoint" />
          </mxGeometry>
        </mxCell>
        <mxCell id="Rkp2vgVegLPEYwAy-F_K-193" value="" style="edgeStyle=none;endArrow=none;dashed=1;fontFamily=JetBrains Mono;exitX=0.5;exitY=1;exitDx=0;exitDy=0;fontStyle=1" edge="1" source="Rkp2vgVegLPEYwAy-F_K-187" parent="1">
          <mxGeometry x="614.4878472222224" y="174.99999999999997" width="100" height="100" as="geometry">
            <mxPoint x="1754.5" y="588.96" as="sourcePoint" />
            <mxPoint x="1755" y="658.96" as="targetPoint" />
          </mxGeometry>
        </mxCell>
        <mxCell id="Rkp2vgVegLPEYwAy-F_K-194" value="" style="fillColor=#FF9933;strokeColor=#660000;fontFamily=JetBrains Mono;fontStyle=1" vertex="1" parent="1">
          <mxGeometry x="1750" y="612.62" width="10" height="57.38" as="geometry" />
        </mxCell>
        <mxCell id="Rkp2vgVegLPEYwAy-F_K-195" value="Serialize" style="edgeStyle=none;verticalLabelPosition=top;verticalAlign=bottom;labelPosition=left;align=right;fontFamily=JetBrains Mono;labelBackgroundColor=#FF9933;fontStyle=1" edge="1" parent="1">
          <mxGeometry width="100" height="100" as="geometry">
            <mxPoint x="1660" y="612.62" as="sourcePoint" />
            <mxPoint x="1750" y="612.62" as="targetPoint" />
            <mxPoint as="offset" />
          </mxGeometry>
        </mxCell>
        <mxCell id="Rkp2vgVegLPEYwAy-F_K-196" value="OnEnter_AllSide" style="edgeStyle=none;verticalLabelPosition=top;verticalAlign=bottom;labelPosition=left;align=right;fontFamily=JetBrains Mono;labelBackgroundColor=#FF9933;fontStyle=1" edge="1" parent="1">
          <mxGeometry x="110" y="49.5" width="100" height="100" as="geometry">
            <mxPoint x="1660" y="643.66" as="sourcePoint" />
            <mxPoint x="1750" y="643.66" as="targetPoint" />
          </mxGeometry>
        </mxCell>
        <mxCell id="Rkp2vgVegLPEYwAy-F_K-197" value="" style="edgeStyle=none;endArrow=none;dashed=1;fontFamily=JetBrains Mono;fontStyle=1" edge="1" target="Rkp2vgVegLPEYwAy-F_K-187" parent="1">
          <mxGeometry x="614.4878472222224" y="174.99999999999997" width="100" height="100" as="geometry">
            <mxPoint x="1754.5" y="90" as="sourcePoint" />
            <mxPoint x="1754.5" y="140" as="targetPoint" />
          </mxGeometry>
        </mxCell>
        <mxCell id="Rkp2vgVegLPEYwAy-F_K-200" value="Multicast" style="edgeStyle=none;verticalLabelPosition=top;verticalAlign=bottom;labelPosition=left;align=center;exitX=0.8;exitY=0.317;exitDx=0;exitDy=0;exitPerimeter=0;dashed=1;fontFamily=JetBrains Mono;entryX=-0.267;entryY=0.046;entryDx=0;entryDy=0;entryPerimeter=0;fontStyle=1" edge="1" parent="1" target="Rkp2vgVegLPEYwAy-F_K-187">
          <mxGeometry width="100" height="100" as="geometry">
            <mxPoint x="1370" y="381" as="sourcePoint" />
            <mxPoint x="1549.5" y="380" as="targetPoint" />
            <mxPoint x="71" y="-10" as="offset" />
          </mxGeometry>
        </mxCell>
        <mxCell id="Rkp2vgVegLPEYwAy-F_K-203" value="DS触发状态变化" style="rounded=1;whiteSpace=wrap;html=1;fillColor=#007FFF;fontStyle=1" vertex="1" parent="1">
          <mxGeometry x="1495" y="740" width="115" height="30" as="geometry" />
        </mxCell>
        <mxCell id="Rkp2vgVegLPEYwAy-F_K-204" value="1P触发状态变化" style="rounded=1;whiteSpace=wrap;html=1;fillColor=#009900;fontStyle=1" vertex="1" parent="1">
          <mxGeometry x="805" y="740" width="115" height="30" as="geometry" />
        </mxCell>
      </root>
    </mxGraphModel>
  </diagram>
</mxfile>
